<svg xmlns="http://www.w3.org/2000/svg" width="43.705" height="50.04" viewBox="0 0 43.705 50.04">
  <path id="icons8_left_click" d="M10.938-.031A1.169,1.169,0,0,0,10.813,0a.991.991,0,0,0-.406.188A26.02,26.02,0,0,0,.344,16.844a1,1,0,1,0,1.969.313A23.94,23.94,0,0,1,11.594,1.813a1,1,0,0,0-.656-1.844Zm14.969,3A.879.879,0,0,0,25.813,3h-.031a.879.879,0,0,0-.094.031A17.992,17.992,0,0,0,8,21v5.688a1.025,1.025,0,0,0,0,.594V32a18,18,0,0,0,36,0V27.188a1.017,1.017,0,0,0,0-.406V21A17.992,17.992,0,0,0,26.313,3.031.466.466,0,0,0,26.25,3h-.062A.971.971,0,0,0,25.906,2.969Zm-13.187.656a1,1,0,0,0-.531.25A21.948,21.948,0,0,0,4.406,16.813a1,1,0,1,0,1.969.375,19.907,19.907,0,0,1,7.063-11.75,1,1,0,0,0-.625-1.812ZM25,5.063V6a1,1,0,0,0,0,2v4a1,1,0,0,0,0,2v4a1,1,0,0,0,0,2v4a1,1,0,0,0,0,2H10V23a1,1,0,0,0,0-2,16.072,16.072,0,0,1,.563-4.187A.994.994,0,0,0,11,16a.938.938,0,0,0-.094-.344,16.2,16.2,0,0,1,1.125-2.469A.994.994,0,1,0,13,12a.9.9,0,0,0-.25.063,16,16,0,0,1,5.281-4.906A.99.99,0,0,0,19,8a1,1,0,0,0,1-1,1.013,1.013,0,0,0-.25-.687A16.023,16.023,0,0,1,25,5.063ZM13,26a1,1,0,1,0-1-1A1,1,0,0,0,13,26Zm6,0a1,1,0,1,0-1-1A1,1,0,0,0,19,26ZM27,5.063A15.966,15.966,0,0,1,42,21v5H27ZM16,9a1,1,0,1,0,1,1A1,1,0,0,0,16,9Zm6,0a1,1,0,1,0,1,1A1,1,0,0,0,22,9Zm-3,3a1,1,0,1,0,1,1A1,1,0,0,0,19,12Zm-3,3a1,1,0,1,0,1,1A1,1,0,0,0,16,15Zm6,0a1,1,0,1,0,1,1A1,1,0,0,0,22,15Zm-9,3a1,1,0,1,0,1,1A1,1,0,0,0,13,18Zm6,0a1,1,0,1,0,1,1A1,1,0,0,0,19,18Zm-3,3a1,1,0,1,0,1,1A1,1,0,0,0,16,21Zm6,0a1,1,0,1,0,1,1A1,1,0,0,0,22,21ZM10,28H42v4a16,16,0,0,1-32,0Z" transform="translate(-0.315 0.04)"/>
</svg>
