<svg xmlns="http://www.w3.org/2000/svg" width="40.125" height="42.594" viewBox="0 0 40.125 42.594">
  <path id="icons8_user_1" d="M25.875,3.406c-4.672.086-7.656,1.973-8.937,4.906-1.223,2.793-.949,6.32-.062,9.969a2.98,2.98,0,0,0-.719,2.438,5.361,5.361,0,0,0,.969,2.719c.266.336.613.367.938.531a10.74,10.74,0,0,0,.906,2.969,9.117,9.117,0,0,0,.813,1.344,4.684,4.684,0,0,0,.438.406c.008,1.234.012,2.262-.094,3.563a4.4,4.4,0,0,1-2.312,2.031c-1.27.633-2.922,1.219-4.594,1.938a14.616,14.616,0,0,0-4.75,2.969A8.668,8.668,0,0,0,6,44.938L5.938,46H46.063L46,44.938a8.687,8.687,0,0,0-2.469-5.75,14.525,14.525,0,0,0-4.719-2.969c-1.664-.719-3.3-1.3-4.562-1.937a4.494,4.494,0,0,1-2.312-2c-.109-1.316-.1-2.348-.094-3.594a5.294,5.294,0,0,0,.438-.406,9.538,9.538,0,0,0,.781-1.344,11.054,11.054,0,0,0,.906-2.969c.313-.164.648-.2.906-.531a5.362,5.362,0,0,0,.969-2.719,2.967,2.967,0,0,0-.687-2.375,18.806,18.806,0,0,0,.906-6.781A7.881,7.881,0,0,0,34.719,7.5a5.888,5.888,0,0,0-3.688-2.219C29.98,3.918,28.09,3.406,25.906,3.406Zm.031,2h.031c2.012.008,3.316.6,3.688,1.25l.25.406.469.063a3.746,3.746,0,0,1,2.75,1.531,6.075,6.075,0,0,1,.969,3.063,18.573,18.573,0,0,1-.937,6.5l-.25.781.688.406a1.2,1.2,0,0,1,.281,1.094,3.574,3.574,0,0,1-.531,1.719c-.18.23-.273.219-.281.219l-.844.063-.094.813a9.091,9.091,0,0,1-.844,2.75,7.452,7.452,0,0,1-.594,1.031c-.184.254-.375.395-.281.344l-.531.281v.594a42.054,42.054,0,0,0,.094,4.313v.125l.063.125a6.233,6.233,0,0,0,3.344,3.219c1.453.727,3.121,1.262,4.688,1.938a12.723,12.723,0,0,1,4.063,2.563A6.485,6.485,0,0,1,43.75,44H8.25a6.47,6.47,0,0,1,1.656-3.406A12.834,12.834,0,0,1,14,38.031c1.574-.676,3.23-1.211,4.688-1.937a6.28,6.28,0,0,0,3.375-3.219l.063-.25a42.056,42.056,0,0,0,.094-4.312v-.594l-.531-.281c.09.047-.125-.09-.312-.344a7.263,7.263,0,0,1-.625-1.031,8.728,8.728,0,0,1-.844-2.75l-.094-.812-.844-.062c-.008,0-.1.012-.281-.219a3.573,3.573,0,0,1-.531-1.719,1.211,1.211,0,0,1,.281-1.094L19.094,19l-.187-.719c-.941-3.625-1.105-6.918-.125-9.156S21.75,5.492,25.906,5.406Z" transform="translate(-5.938 -3.406)"/>
</svg>
